<svg width="132" height="16" viewBox="0 0 132 16" fill="none" xmlns="http://www.w3.org/2000/svg">
<g clip-path="url(#clip0_3514_2662)">
<g clip-path="url(#clip1_3514_2662)">
<path d="M10.2309 12.108H21.1478V15.6585H8.45842V6.02293L-0.333252 0.519316H10.2309V12.1051V12.108ZM21.1478 6.02293L29.9395 0.519316H21.1478V6.02011V6.02293ZM44.1981 5.44999H46.9527V10.1492H49.5295V0H46.9527V3.44893H44.1981V0.736638H35.9934V8.18204H44.1981V5.44999ZM41.6777 6.04551H38.5138V2.87317H41.6777V6.04551ZM45.0758 9.86135V9.20938H42.4679V9.86135C42.4679 10.1944 42.3889 10.4682 41.545 11.0778L37.4667 14.0385L38.8779 16L42.9562 13.0393C43.2695 12.8051 43.5433 12.568 43.7803 12.3337C44.0146 12.568 44.2912 12.8051 44.6045 13.0393L48.6828 16L50.094 14.0385L46.0157 11.0778C45.1718 10.471 45.073 10.1944 45.073 9.86135H45.0758ZM57.2289 4.69924V0.736638H54.7255V4.69924C54.7255 5.4895 54.6098 5.87335 53.859 6.93456L50.5061 11.6253L52.4309 13.0111L55.7839 8.32034C55.8601 8.22438 55.9193 8.12842 55.9758 8.04939C56.0322 8.1256 56.0915 8.22156 56.1677 8.32034L59.5207 13.0111L61.4455 11.6253L58.0926 6.93456C57.3418 5.87617 57.2261 5.4895 57.2261 4.69924H57.2289ZM64.6715 0H62.0947V16H64.6715V8.2018H67.0113V6.02011H64.6715V0ZM112.815 3.54207H111.602V0.177809H109.208V9.16705H111.602V5.72094H112.815V9.33921H115.262V0H112.815V3.54207ZM103.592 16H115.262V10.0335H103.592V16ZM106.115 12.0176H112.703V14.0187H106.115V12.0176ZM107.698 5.91004C108.164 4.9081 108.286 3.79608 108.286 3.79608C108.334 3.42635 108.365 2.44417 108.365 2.10831V0.460046H101.613V2.62762H106.076C106.067 2.94091 106.025 3.53078 105.966 3.85818H101.613V5.91568H104.997C104.052 6.92891 102.621 7.35227 101.357 7.65426L101.913 9.89804C104.851 9.20374 106.781 7.92803 107.698 5.91286V5.91004ZM120.168 7.97037H118.234V10.0335H129.927V7.97037H127.977V2.94373H129.947V0.863644H118.217V2.94373H120.168V7.97037ZM122.745 2.94373H125.423V7.97037H122.745V2.94373ZM116.516 12.0176V14.1655H131.649V12.0176H116.516ZM98.7742 7.97037H90.2986V6.48298H98.7742V4.47627H90.2986V2.94655H98.7742V0.863644H87.7048V10.0335H98.7742V7.97037ZM85.6727 14.1655H100.806V12.0176H85.6727V14.1655ZM70.2118 11.36H76.4013V16H79.0458V11.36H85.2353V9.21221H70.2118V11.36ZM83.1044 0.460046H80.584V2.23531H74.8857V0.460046H72.3455V7.83207H83.1044V0.460046ZM80.584 5.76892H74.8857V4.26177H80.584V5.76892Z" fill="#FF6000"/>
</g>
</g>
<defs>
<clipPath id="clip0_3514_2662">
<rect width="131.333" height="16" fill="white"/>
</clipPath>
<clipPath id="clip1_3514_2662">
<rect width="131.333" height="16" fill="white"/>
</clipPath>
</defs>
</svg>
